<svg width="108" height="18" viewBox="0 0 108 18" fill="none" xmlns="http://www.w3.org/2000/svg">
<path d="M96.0057 5.7067H94.3025V17.2161H96.0057V5.7067ZM47.2483 5.7067H45.545V17.2161H47.2483V5.7067ZM13.6655 5.44447H15.6057C15.0873 3.75532 12.8459 0.521702 8.21176 0.521702C3.57761 0.521702 0 4.17489 0 9.01085C0 13.9119 3.53485 17.5 8.21176 17.5C12.8441 17.5 15.0873 14.1959 15.563 12.617H13.6869C13.1702 13.6461 11.531 15.724 8.21176 15.724C4.6484 15.724 1.94025 12.8576 1.94025 9.03255C1.94025 5.16053 4.65553 2.29404 8.21176 2.29404C11.4669 2.29404 13.0829 4.37202 13.6655 5.44447ZM26.4472 11.4614C26.4472 13.9336 24.7226 15.838 22.3743 15.838C20.0261 15.838 18.2765 13.9336 18.2765 11.4614C18.2765 8.98915 20.0011 7.08479 22.3743 7.08479C24.7475 7.08479 26.4472 8.98915 26.4472 11.4614ZM26.4259 17.2161H28.1291V5.7067H26.4259V7.87692C26.082 7.11192 24.874 5.44808 22.3084 5.44808C19.0764 5.44808 16.5322 8.03064 16.5322 11.465C16.5322 14.8994 19.0764 17.4819 22.3084 17.4819C24.874 17.4819 26.0606 15.8416 26.4259 15.0531V17.2161ZM30.1977 17.2161H31.901V0.5H30.1977V17.2161ZM39.7475 17.2161L44.1446 5.7067H42.2685L38.6624 15.4437L35.0688 5.7067H33.1945L37.5934 17.2161H39.7475ZM45.5237 3.69383H47.2697V1.68096H45.5237V3.69383ZM57.5072 17.2161H59.2319V10.7181C59.2319 7.80819 57.7442 5.44447 54.5764 5.44447C52.2263 5.44447 51.2357 6.99798 51.013 7.63277V5.7067H49.3169V17.2161H51.0201V10.8483C51.0201 8.6383 52.2495 7.08479 54.2966 7.08479C56.3438 7.08479 57.5037 8.59489 57.5037 10.7615L57.5072 17.2161ZM76.9079 17.2161L70.4191 8.22415L76.9079 0.809255H74.6648L67.0784 9.56245V0.805638H65.2094V17.2161H67.0855V12.0311L69.1291 9.68904L74.7557 17.2161H76.9079ZM77.8772 17.2161H79.5805V0.5H77.8772V17.2161ZM83.0262 10.3672C83.1855 9.43502 83.6643 8.58996 84.3779 7.98137C85.0916 7.37278 85.9942 7.03984 86.9263 7.04138C89.189 7.04138 90.4612 8.6383 90.8068 10.3672H83.0262ZM82.9211 11.8936H92.6473C92.7346 8.13011 90.2545 5.43904 86.9352 5.43904C83.6801 5.43904 81.2018 8.065 81.2018 11.456C81.2018 14.8469 83.6587 17.4729 86.978 17.4729C90.3846 17.4729 92.0665 15.0874 92.5012 13.5122H90.7997C90.3471 14.4762 89.2478 15.8633 86.9833 15.8633C84.7188 15.8633 83.0636 14.1127 82.9318 11.9027L82.9211 11.8936ZM94.2918 3.69745H96.0325V1.68096H94.2864L94.2918 3.69745ZM108 17.2197V10.7181C108 7.80819 106.512 5.44447 103.344 5.44447C100.994 5.44447 100.004 6.99798 99.7811 7.63277V5.7067H98.0778V17.2161H99.774V10.8483C99.774 8.6383 101.002 7.08479 103.051 7.08479C105.099 7.08479 106.258 8.59489 106.258 10.7615V17.2161L108 17.2197Z" fill="black"/>
</svg>
